<?xml version="1.0" standalone="no"?>
<!DOCTYPE svg PUBLIC "-//W3C//DTD SVG 20010904//EN"
 "http://www.w3.org/TR/2001/REC-SVG-20010904/DTD/svg10.dtd">
<svg version="1.0" xmlns="http://www.w3.org/2000/svg"
 width="1800.000000pt" height="1800.000000pt" viewBox="0 0 1800.000000 1800.000000"
 preserveAspectRatio="xMidYMid meet">
<g transform="translate(0.000000,1800.000000) scale(0.100000,-0.100000)"
fill="#1b1f88" stroke="none">
<path d="M4580 14371 c-109 -32 -163 -81 -194 -177 l-17 -51 3 -2745 3 -2745
12 -14 11 -14 5 -100 c9 -177 67 -418 177 -740 26 -74 127 -310 159 -369 74
-134 148 -262 185 -316 89 -131 214 -295 280 -367 6 -6 49 -53 96 -105 47 -51
117 -127 156 -168 148 -156 253 -268 324 -345 40 -44 108 -116 149 -160 42
-45 114 -121 160 -170 46 -50 120 -128 165 -175 65 -69 227 -244 281 -304 6
-6 51 -54 100 -106 50 -52 160 -169 245 -260 85 -91 191 -203 235 -250 44 -47
117 -123 161 -170 123 -131 279 -296 373 -396 47 -50 136 -144 197 -210 229
-246 260 -277 296 -300 l38 -24 55 0 56 0 32 16 c32 16 98 81 530 529 133 138
301 311 372 385 72 74 169 175 216 224 46 49 113 119 149 155 36 37 92 96 124
131 32 36 127 135 210 221 83 86 192 199 241 251 176 185 204 214 264 272 l61
59 0 26 0 26 -37 40 c-32 35 -112 134 -208 259 -17 21 -44 59 -62 84 -18 25
-36 48 -40 51 -5 3 -53 65 -108 136 -54 72 -102 132 -105 135 -4 3 -20 23 -36
46 -41 58 -235 313 -318 419 -39 50 -80 102 -91 117 -63 87 -172 224 -182 231
-7 4 -13 13 -13 19 0 5 -25 42 -55 82 -31 39 -86 112 -123 161 l-67 90 -24 3
c-13 2 -40 -3 -60 -11 -145 -59 -655 -78 -842 -31 -31 8 -73 14 -92 14 -19 0
-48 7 -63 15 -16 8 -42 15 -57 15 -28 0 -180 47 -244 76 -17 8 -36 14 -42 14
-6 0 -54 20 -107 45 -52 25 -98 45 -101 45 -3 0 -25 14 -50 30 -24 17 -48 30
-53 30 -5 0 -38 20 -74 45 -37 25 -69 45 -72 45 -24 0 -267 203 -389 325 -133
133 -287 338 -372 494 -20 36 -45 80 -55 96 -10 17 -21 37 -24 45 -4 8 -18 39
-31 69 -13 30 -30 70 -37 90 -8 20 -28 74 -46 121 -17 47 -36 105 -40 130 -4
25 -13 56 -18 70 -13 31 -35 143 -56 280 l-16 105 0 235 0 235 11 45 c6 25 15
79 20 120 11 96 50 256 75 317 8 17 14 38 14 47 0 8 7 32 16 53 9 21 23 52 29
68 60 142 104 230 178 355 81 135 134 212 208 299 7 7 36 42 67 78 122 144
441 408 558 462 11 5 50 27 85 48 62 37 112 62 174 87 17 7 46 20 65 28 98 43
286 108 313 108 8 0 37 6 63 14 68 20 207 43 345 57 l116 12 144 -7 c254 -11
491 -47 597 -92 18 -8 40 -14 50 -14 20 -1 108 -31 139 -48 12 -7 27 -12 33
-12 7 0 53 -20 103 -43 51 -24 99 -47 107 -51 8 -3 35 -18 60 -33 25 -14 59
-33 75 -42 28 -15 58 -35 200 -131 28 -19 55 -39 60 -46 6 -6 39 -35 75 -64
95 -77 262 -251 341 -355 38 -49 74 -95 79 -102 6 -7 10 -14 10 -17 0 -2 19
-33 42 -68 53 -78 54 -79 105 -177 23 -44 46 -88 52 -98 8 -15 35 -81 90 -218
5 -11 16 -47 26 -80 9 -33 22 -73 27 -90 31 -95 61 -259 79 -435 34 -322 -10
-720 -108 -985 -28 -74 -46 -120 -59 -152 -8 -17 -14 -35 -14 -41 0 -14 -105
-214 -163 -312 -138 -231 -372 -498 -564 -644 -35 -26 -63 -54 -63 -62 0 -12
53 -79 86 -109 10 -9 124 -148 209 -255 17 -21 74 -91 127 -156 53 -66 140
-173 193 -239 54 -66 107 -131 118 -145 12 -14 66 -81 121 -150 55 -69 105
-130 111 -136 16 -18 62 -74 118 -145 79 -100 130 -162 147 -180 8 -9 35 -40
60 -69 25 -29 50 -58 55 -64 25 -26 68 -88 86 -123 l20 -38 0 -80 0 -80 -23
-44 c-13 -24 -29 -55 -37 -70 -17 -31 -149 -164 -206 -207 -41 -31 -196 -109
-275 -139 -25 -9 -58 -23 -73 -31 -16 -8 -34 -14 -41 -14 -16 0 -82 -70 -90
-96 l-6 -21 15 -42 15 -43 62 -72 c55 -62 174 -195 287 -321 20 -22 79 -89
131 -150 111 -130 136 -157 172 -194 14 -15 59 -66 99 -112 39 -46 75 -86 78
-89 4 -3 17 -18 30 -35 78 -102 355 -402 444 -482 121 -108 376 -238 512 -262
23 -4 46 -10 53 -15 17 -10 254 -36 336 -36 78 0 208 15 306 35 36 8 80 17 97
20 18 4 35 11 38 16 4 5 15 9 27 9 11 0 32 6 46 14 15 7 58 28 97 46 233 108
416 344 415 533 -1 102 -35 176 -125 272 -25 28 -79 88 -118 135 -40 47 -99
114 -132 150 -34 36 -98 108 -144 160 -46 52 -111 126 -145 164 -33 38 -65 76
-70 85 -5 9 -27 34 -48 55 -22 22 -67 73 -101 114 -34 41 -105 123 -157 182
-52 59 -120 136 -150 170 -30 35 -62 70 -70 79 -9 9 -32 36 -51 61 -20 25 -56
66 -80 92 -61 64 -150 166 -174 198 -20 26 -56 67 -147 166 -27 28 -48 54 -48
58 0 4 -15 22 -33 39 -47 47 -180 196 -197 222 -9 13 -27 34 -40 47 -94 91
-190 198 -190 213 0 9 46 65 103 123 56 59 119 127 139 152 89 107 206 258
228 295 13 22 26 42 29 45 10 8 51 69 51 74 0 3 27 50 60 104 33 55 60 102 60
105 0 3 20 40 45 81 25 42 45 79 45 82 0 2 21 48 46 102 59 126 69 148 89 202
9 25 22 59 29 75 18 41 31 82 72 210 19 61 39 124 45 140 6 17 15 48 19 70 4
22 12 54 18 70 5 17 17 66 27 110 9 44 23 107 30 140 60 270 81 466 93 855 l8
235 -13 175 c-18 233 -42 448 -62 545 -40 192 -73 336 -86 376 -8 26 -15 53
-15 61 0 15 -88 286 -120 368 -12 30 -25 66 -30 80 -33 101 -162 364 -264 540
-14 25 -29 52 -33 60 -15 31 -70 119 -113 179 -114 158 -195 269 -223 301 -16
19 -48 57 -71 84 -69 81 -389 398 -462 457 -248 201 -421 312 -689 443 -217
106 -242 117 -465 196 -19 6 -51 16 -70 20 -19 5 -66 18 -105 29 -38 12 -92
26 -118 31 -27 5 -52 12 -57 15 -4 3 -34 9 -67 14 -32 5 -101 17 -153 26 -52
8 -183 25 -290 37 l-195 22 -2290 2 -2290 2 -55 -17z m4730 -297 c47 -3 95
-10 107 -16 l22 -11 40 7 40 6 6 -10 c3 -5 33 -10 65 -10 32 0 61 -4 65 -9 3
-5 18 -9 33 -9 15 0 47 -5 72 -12 25 -6 55 -12 67 -13 12 -1 25 -5 29 -9 4 -5
23 -8 41 -8 19 0 44 -5 56 -12 23 -12 79 -28 112 -32 21 -3 26 -4 85 -26 19
-7 49 -15 65 -18 17 -2 39 -11 50 -18 11 -8 28 -14 39 -14 11 0 73 -27 138
-60 64 -33 126 -60 138 -60 11 0 20 -4 20 -10 0 -13 74 -50 100 -50 11 0 20
-5 20 -11 0 -6 34 -26 75 -45 41 -19 75 -39 75 -45 0 -5 17 -17 37 -26 21 -8
43 -23 50 -33 7 -10 28 -24 47 -30 19 -6 42 -22 50 -36 9 -13 24 -24 33 -24
17 0 26 -8 91 -72 20 -21 43 -38 50 -38 7 0 37 -25 66 -55 29 -30 56 -55 60
-55 10 0 236 -229 236 -239 0 -4 22 -29 50 -54 28 -25 50 -50 50 -54 0 -4 18
-28 40 -52 22 -24 40 -47 40 -50 0 -4 11 -17 25 -29 14 -12 25 -27 25 -34 0
-7 9 -21 20 -33 45 -46 70 -79 70 -91 0 -7 8 -19 18 -26 9 -7 26 -32 37 -56
10 -24 26 -49 35 -55 10 -7 31 -42 48 -79 17 -38 36 -68 41 -68 5 0 19 -21 31
-47 12 -27 26 -55 31 -63 5 -8 24 -47 43 -86 19 -39 41 -74 49 -77 l14 -5 7
-54 7 -53 30 -52 c16 -29 29 -63 29 -75 0 -13 12 -43 26 -68 14 -24 31 -71 39
-105 13 -61 31 -116 46 -147 5 -10 9 -29 9 -42 0 -14 5 -28 11 -31 6 -4 8 -13
5 -20 -5 -13 8 -63 26 -98 5 -10 6 -22 2 -28 -3 -5 -1 -15 4 -22 6 -7 13 -39
17 -72 6 -53 16 -99 33 -145 3 -8 7 -31 9 -50 7 -84 15 -146 20 -160 13 -29
15 -91 19 -579 l4 -493 -10 -13 c-6 -7 -10 -28 -9 -46 2 -51 -12 -152 -23
-166 l-10 -12 7 -30 6 -29 -10 -7 c-6 -3 -11 -24 -11 -45 0 -21 -5 -42 -11
-46 -6 -3 -8 -15 -6 -26 3 -11 2 -28 -2 -37 -13 -25 -32 -88 -29 -98 3 -14
-14 -97 -25 -118 -11 -21 -27 -78 -31 -110 -3 -21 -4 -26 -26 -85 -7 -19 -15
-48 -18 -65 -2 -16 -11 -39 -18 -50 -8 -11 -14 -31 -14 -45 0 -15 -7 -35 -15
-46 -8 -10 -15 -28 -15 -38 0 -11 -18 -54 -40 -97 -22 -43 -40 -84 -40 -92 0
-8 -7 -17 -15 -21 -8 -3 -15 -14 -15 -24 0 -11 7 -25 15 -32 17 -14 20 -40 5
-40 -5 0 -13 7 -18 16 l-9 17 -9 -14 c-5 -8 -9 -19 -10 -26 -4 -25 -75 -163
-84 -163 -6 0 -28 -38 -51 -85 -22 -47 -52 -98 -65 -112 -13 -14 -24 -32 -24
-40 0 -7 -11 -23 -25 -35 -13 -11 -29 -36 -36 -55 -6 -18 -15 -33 -20 -33 -8
0 -47 -53 -79 -109 -8 -14 -30 -42 -49 -61 -18 -19 -39 -49 -46 -65 -7 -17
-23 -39 -34 -49 -12 -11 -21 -25 -21 -31 0 -7 -7 -15 -15 -19 -8 -3 -26 -29
-38 -58 -13 -29 -35 -66 -49 -83 -30 -36 -58 -88 -58 -110 0 -8 -9 -34 -19
-58 l-19 -42 -5 -77 -5 -77 19 -13 19 -13 -6 -37 -6 -36 -19 -5 -19 -5 -68 68
c-80 82 -102 107 -102 118 0 5 -46 57 -102 115 -122 127 -148 157 -148 171 0
6 -17 28 -38 49 -47 48 -69 72 -73 85 -5 12 -73 93 -121 143 -21 22 -38 44
-38 51 0 6 -17 28 -37 48 -53 52 -83 90 -83 105 0 7 -16 25 -35 39 -19 15 -35
32 -35 39 0 7 -9 18 -20 25 -11 7 -20 18 -20 25 0 7 -10 23 -23 37 -12 14 -35
49 -50 78 l-27 54 0 45 0 46 31 63 c17 34 40 71 50 80 10 9 19 22 19 29 0 6
12 23 28 37 47 44 116 128 135 166 9 20 26 46 38 58 l20 21 -15 6 c-9 4 -16
13 -16 22 l0 15 20 0 c11 0 23 -7 26 -15 4 -8 12 -15 20 -15 l14 0 0 20 c0 11
-4 20 -9 20 -13 0 -22 30 -16 51 7 21 35 26 36 7 0 -7 9 6 19 30 11 23 24 42
30 42 19 0 123 232 139 310 4 20 20 48 34 62 l27 27 0 28 c0 15 7 37 15 47 8
11 15 30 15 43 0 13 4 31 9 41 19 39 34 91 42 152 6 36 13 72 16 80 11 25 17
60 40 240 4 30 7 193 7 363 l0 307 -12 12 c-7 7 -12 26 -12 43 0 78 -65 338
-111 443 -11 23 -19 49 -19 56 0 8 -7 27 -15 42 -8 16 -15 37 -15 46 0 24
-177 377 -207 412 -14 16 -31 46 -39 66 -8 21 -26 47 -40 59 -13 11 -24 27
-24 33 0 7 -20 36 -45 63 -51 57 -53 59 -79 100 -11 17 -40 51 -65 76 -25 25
-84 87 -131 138 -46 50 -89 91 -95 91 -5 1 -28 19 -50 40 -22 22 -45 40 -51
40 -6 0 -22 14 -35 31 -13 18 -39 38 -57 46 -18 7 -42 23 -55 34 -12 11 -31
28 -42 38 -11 11 -47 31 -80 46 -33 14 -65 33 -72 41 -14 19 -319 174 -341
174 -10 0 -39 11 -65 26 l-48 25 -20 -6 c-10 -4 -19 -11 -19 -16 0 -5 -4 -9
-10 -9 -5 0 -10 7 -10 15 0 8 5 15 11 15 5 0 7 5 4 10 -3 6 -20 10 -36 10 -16
0 -43 10 -59 21 l-29 22 -17 -7 c-9 -3 -22 -3 -28 2 -22 16 -84 32 -99 26 -8
-3 -18 -1 -22 5 -3 6 -24 11 -45 11 -21 0 -42 5 -46 11 l-6 11 -35 -7 -35 -6
-11 10 c-37 30 -727 30 -764 -1 l-13 -10 -28 5 c-26 5 -80 -7 -107 -24 -5 -4
-34 -10 -62 -14 -29 -4 -56 -11 -59 -16 -3 -5 -16 -6 -29 -3 l-23 6 -6 -11
c-4 -6 -15 -11 -25 -11 -10 0 -32 -7 -47 -15 -16 -8 -39 -15 -51 -15 -12 0
-25 -4 -28 -10 -3 -5 -14 -10 -24 -10 -10 0 -24 -7 -31 -15 -7 -9 -19 -14 -27
-11 -7 3 -48 -12 -90 -34 -42 -22 -85 -40 -95 -40 -24 0 -98 -38 -98 -50 0 -5
-42 -29 -93 -54 -51 -24 -99 -52 -107 -61 -8 -10 -34 -26 -57 -36 -24 -10 -43
-23 -43 -29 0 -6 -15 -17 -32 -25 -18 -8 -49 -29 -69 -47 -20 -18 -45 -38 -55
-44 l-19 -11 3 -22 3 -21 -27 -10 c-15 -6 -34 -20 -41 -30 l-14 -19 -14 6 -15
5 -85 -88 -86 -89 6 -22 c3 -12 1 -24 -4 -27 -5 -3 -11 8 -15 24 -7 37 -23 38
-37 3 -20 -50 -42 -87 -68 -114 -53 -53 -107 -122 -124 -157 -9 -20 -25 -45
-36 -56 -10 -12 -28 -42 -40 -68 -13 -27 -27 -48 -31 -48 -11 0 -160 -295
-160 -317 0 -8 -16 -47 -35 -84 -19 -38 -35 -78 -35 -89 0 -11 -4 -28 -9 -38
-15 -30 -33 -86 -35 -107 0 -11 -4 -24 -7 -30 -3 -5 -14 -46 -24 -90 -9 -44
-21 -89 -25 -100 -5 -11 -9 -27 -9 -35 0 -41 -15 -136 -22 -146 -21 -27 0
-782 23 -811 5 -7 7 -21 3 -32 -5 -18 1 -51 23 -111 3 -8 6 -22 7 -30 2 -25
16 -73 31 -107 8 -17 14 -38 14 -46 0 -8 7 -28 15 -43 8 -16 15 -38 15 -49 0
-11 7 -29 15 -39 8 -11 15 -30 15 -42 0 -13 16 -53 35 -91 19 -37 35 -76 35
-86 0 -25 88 -197 101 -197 5 0 24 -32 41 -70 l31 -70 14 2 15 3 15 -45 c8
-25 23 -54 34 -65 44 -47 69 -79 69 -88 0 -5 10 -20 23 -33 68 -70 87 -92 87
-102 0 -13 286 -302 300 -302 5 0 18 -8 29 -17 50 -48 115 -99 134 -106 12 -5
25 -14 30 -22 4 -8 28 -23 52 -34 25 -11 45 -25 45 -31 0 -6 33 -26 74 -45 41
-18 77 -38 81 -44 3 -6 15 -11 25 -11 11 0 24 -9 30 -20 l11 -20 23 0 c13 0
26 -7 30 -15 l5 -15 25 0 24 0 6 -15 5 -15 25 0 c13 0 26 -6 29 -14 3 -7 21
-16 40 -20 19 -4 55 -17 81 -31 25 -13 61 -27 81 -31 19 -3 37 -10 40 -14 3
-5 23 -11 45 -15 22 -4 42 -11 46 -16 3 -5 22 -9 42 -9 20 0 49 -6 64 -14 14
-8 55 -17 90 -21 34 -4 68 -11 73 -15 14 -10 127 -22 202 -20 l61 1 7 -10 6
-11 149 0 149 0 6 10 6 10 94 0 c52 0 96 -4 99 -9 4 -5 24 -12 47 -16 l40 -7
92 -92 c110 -110 167 -176 167 -193 0 -7 9 -18 20 -25 11 -7 20 -17 20 -23 0
-5 18 -27 40 -48 22 -20 40 -43 40 -49 0 -7 9 -21 20 -33 42 -43 70 -78 70
-89 0 -5 9 -19 20 -31 42 -43 70 -78 70 -89 0 -5 9 -19 20 -31 45 -47 58 -64
64 -82 3 -11 33 -48 66 -83 33 -35 60 -70 60 -77 0 -7 9 -18 20 -25 11 -7 20
-18 20 -25 0 -7 9 -18 20 -25 11 -7 20 -18 20 -25 0 -15 41 -58 58 -59 6 -1
17 -2 22 -2 6 -1 10 -17 10 -35 l0 -33 41 -42 c22 -23 46 -57 54 -75 7 -17 23
-40 34 -49 12 -10 21 -26 21 -37 0 -10 6 -24 13 -30 l14 -11 -1 -63 -1 -63
-27 -33 c-16 -18 -28 -39 -28 -46 0 -8 -47 -62 -105 -121 -58 -59 -105 -112
-105 -117 0 -6 -63 -72 -140 -148 -77 -75 -140 -140 -140 -143 0 -4 -92 -99
-205 -212 -113 -114 -205 -211 -205 -216 0 -6 -70 -79 -155 -164 -85 -85 -155
-157 -155 -160 0 -3 -85 -90 -188 -194 l-189 -188 -36 -16 c-21 -8 -37 -20
-37 -25 0 -6 -9 -11 -20 -11 -11 0 -29 -6 -40 -12 l-20 -13 -20 13 c-11 6 -29
12 -40 12 l-20 0 0 19 c0 23 -19 32 -42 19 l-18 -9 0 14 c0 14 -51 67 -64 67
-13 0 -56 44 -56 57 0 7 -9 18 -20 25 -11 7 -34 32 -52 55 -17 24 -36 43 -42
43 -12 0 -136 125 -136 137 0 13 -44 50 -69 58 l-21 6 0 19 0 19 -96 96 -95
97 -14 -6 c-17 -6 -22 1 -29 38 l-5 28 -44 42 c-24 22 -47 49 -50 59 -4 9 -18
22 -32 27 -14 5 -25 16 -25 25 0 8 -58 73 -130 144 -71 71 -130 132 -130 136
0 4 -43 48 -95 99 -52 51 -95 97 -95 103 0 5 -68 79 -150 164 -292 299 -315
324 -334 354 -11 17 -68 80 -128 140 -60 61 -142 144 -183 186 -41 42 -75 81
-75 86 0 9 -129 145 -330 349 -33 34 -60 65 -60 70 0 6 -25 36 -55 67 -30 31
-55 60 -55 65 0 5 -16 22 -35 39 -19 17 -35 37 -35 43 0 7 -20 32 -45 57 -25
24 -45 50 -45 57 0 7 -11 23 -25 36 -14 13 -25 29 -25 36 0 7 -9 18 -19 23
-10 6 -24 24 -29 41 -6 16 -16 30 -21 30 -6 0 -33 47 -60 105 -27 58 -54 105
-60 105 -13 0 -101 176 -101 201 0 10 -15 51 -34 91 -34 73 -51 118 -66 173
-8 30 -27 84 -41 120 -4 11 -11 40 -15 65 -3 25 -10 50 -14 55 -7 9 -19 61
-22 95 0 8 -4 20 -8 25 -7 9 -11 33 -27 130 -2 11 -8 52 -14 90 l-12 70 -3
2609 -4 2610 10 10 c5 5 10 27 10 48 l0 37 21 11 21 12 -6 15 -6 15 42 39 c24
22 48 37 55 35 11 -4 59 8 91 23 16 7 4277 2 4402 -5z m2310 -7454 l24 -30 21
0 c24 0 69 -45 60 -60 -3 -5 -3 -15 0 -20 l7 -11 15 13 16 13 16 -25 c9 -13
24 -31 34 -39 9 -9 17 -20 17 -26 0 -6 22 -31 50 -56 27 -24 50 -49 50 -55 0
-16 42 -51 65 -56 l20 -3 3 -24 c2 -13 15 -34 28 -46 13 -12 24 -26 24 -31 0
-4 26 -33 58 -64 32 -30 63 -64 69 -74 12 -22 98 -119 164 -185 25 -25 48 -52
50 -58 4 -14 87 -107 160 -181 25 -26 48 -53 50 -60 5 -14 86 -106 167 -188
28 -29 52 -59 52 -67 0 -7 16 -27 35 -44 19 -17 35 -35 35 -40 0 -5 22 -29 50
-54 27 -24 50 -48 50 -54 0 -5 25 -36 55 -68 30 -31 55 -60 55 -65 0 -4 29
-34 65 -67 36 -33 65 -65 65 -70 0 -6 27 -39 60 -73 33 -35 60 -69 60 -75 1
-18 47 -67 64 -67 18 0 36 -30 36 -61 0 -13 12 -35 26 -50 l26 -27 2 -70 1
-70 -17 -19 c-10 -11 -18 -27 -18 -36 0 -9 -9 -21 -20 -27 -11 -6 -20 -17 -20
-25 0 -8 -13 -21 -29 -30 -16 -8 -31 -18 -33 -23 -4 -10 -130 -72 -146 -72 -6
0 -15 -7 -20 -16 l-9 -16 -52 -3 c-29 -2 -59 -9 -66 -15 -7 -6 -41 -11 -76
-11 -35 1 -107 0 -159 0 -183 -1 -198 0 -205 11 -3 5 -21 10 -40 10 -19 0 -46
5 -62 12 -57 23 -128 47 -141 48 -17 0 -120 48 -124 58 -5 11 -86 72 -95 72
-5 0 -14 9 -21 20 -7 11 -16 20 -20 20 -5 0 -77 69 -160 153 -213 214 -236
238 -242 253 -5 14 -75 93 -162 184 -26 28 -54 65 -61 83 -8 18 -32 46 -53 62
-21 16 -41 34 -43 39 -2 6 -26 31 -53 57 -26 25 -48 50 -48 56 0 5 -10 19 -23
31 l-23 22 -12 -12 -11 -11 -16 13 c-22 19 -18 28 10 22 35 -6 31 7 -15 51
-22 20 -40 43 -40 50 0 8 -11 23 -25 35 -14 12 -26 28 -26 34 -11 94 -4 111
78 191 108 105 118 114 136 120 9 4 20 15 24 24 6 16 27 42 89 106 12 12 24
32 28 45 4 12 23 42 41 67 45 58 75 118 75 149 0 14 5 28 10 31 6 4 8 15 5 25
-3 10 -1 21 5 25 l10 6 0 103 c0 56 -3 106 -7 110 -9 9 -14 45 -14 99 l1 38
-15 5 c-8 4 -15 17 -15 30 l0 23 -20 11 c-11 6 -18 15 -15 21 11 16 29 9 55
-21z"/>
<path d="M8255 11456 c-206 -49 -374 -117 -466 -188 -20 -15 -40 -28 -44 -28
-12 0 -92 -67 -168 -140 -129 -123 -233 -279 -315 -470 -8 -19 -21 -48 -28
-63 -8 -16 -14 -38 -14 -48 0 -11 -6 -41 -14 -67 -62 -211 -59 -411 14 -702
64 -258 295 -575 535 -735 115 -76 315 -175 354 -175 10 0 32 -7 47 -15 16 -8
45 -15 64 -15 19 0 53 -7 75 -15 l40 -14 160 -1 160 0 75 16 c396 83 751 328
926 640 99 176 150 323 184 529 l12 70 -5 130 c-7 183 -8 191 -64 383 -9 31
-42 111 -73 177 l-58 120 -62 85 c-80 108 -96 125 -203 220 l-88 78 -109 66
c-60 36 -114 66 -119 66 -5 0 -35 12 -67 26 -65 29 -89 37 -214 65 l-85 20
-175 4 -175 5 -100 -24z m401 -286 c5 -5 31 -11 58 -14 26 -2 53 -9 59 -15 6
-6 27 -11 47 -11 l35 0 107 -54 c59 -29 121 -65 138 -80 17 -14 36 -26 42 -26
5 0 24 -16 41 -35 17 -19 35 -35 40 -35 12 0 57 -42 57 -53 0 -8 72 -101 110
-143 11 -12 20 -29 20 -37 0 -9 5 -19 10 -22 14 -9 46 -80 60 -132 6 -23 15
-45 20 -48 6 -3 10 -19 10 -34 0 -15 5 -32 11 -38 43 -43 43 -483 0 -526 -6
-6 -11 -23 -11 -37 0 -14 -7 -35 -15 -46 -8 -10 -15 -29 -15 -40 0 -12 -6 -24
-14 -27 -8 -3 -17 -24 -21 -47 l-7 -41 -29 -30 c-16 -16 -29 -36 -29 -43 0 -7
-27 -41 -60 -76 -33 -35 -60 -68 -60 -73 0 -14 -87 -97 -102 -97 -6 0 -21 -10
-34 -22 -51 -50 -61 -58 -77 -58 -9 0 -18 -4 -21 -9 -9 -14 -175 -91 -196 -91
-10 0 -22 -5 -25 -10 -4 -6 -15 -8 -25 -5 -10 3 -28 1 -41 -4 -13 -5 -33 -13
-44 -17 -25 -8 -355 -11 -361 -3 -2 3 -32 9 -68 13 l-64 6 -46 25 c-26 14 -56
25 -67 25 -10 0 -19 5 -19 11 0 6 -33 25 -73 44 -40 18 -81 43 -91 54 -11 12
-23 21 -28 21 -18 0 -178 154 -178 172 0 7 -18 33 -40 56 -22 24 -53 73 -70
108 -16 35 -34 64 -40 64 -5 0 -10 9 -10 20 0 12 -9 38 -20 60 -11 22 -20 48
-20 59 0 11 -4 23 -10 26 -5 3 -10 25 -10 49 0 23 -5 47 -11 53 l-11 11 0 123
c0 68 3 142 6 164 4 22 10 63 13 90 3 28 12 59 19 70 8 11 14 28 14 38 0 24
115 255 141 283 10 11 19 23 19 27 0 19 185 207 204 207 8 0 28 12 45 26 33
28 158 94 177 94 6 0 17 7 24 15 7 8 28 17 49 21 20 4 41 10 47 15 6 5 46 11
90 15 43 3 83 10 89 15 5 5 63 9 130 9 l121 0 10 -10z"/>
</g>
</svg>
