<?xml version="1.0" standalone="no"?> <!DOCTYPE svg PUBLIC "-//W3C//DTD SVG 20010904//EN" "http://www.w3.org/TR/2001/REC-SVG-20010904/DTD/svg10.dtd"> <svg version="1.0" xmlns="http://www.w3.org/2000/svg" width="1800.000000pt" height="1800.000000pt" viewBox="0 0 1800.000000 1800.000000" preserveAspectRatio="xMidYMid meet"> <g transform="translate(0.000000,1800.000000) scale(0.100000,-0.100000)" fill="#1116b6" stroke="none"> <path d="M0 9000 l0 -9000 9000 0 9000 0 0 9000 0 9000 -9000 0 -9000 0 0 -9000z m9270 5377 c19 -4 91 -11 160 -17 69 -6 150 -14 180 -20 30 -5 100 -17 155 -26 55 -9 116 -21 135 -26 31 -8 66 -17 190 -47 53 -13 141 -38 180 -52 32 -11 56 -19 150 -54 85 -32 224 -91 270 -115 8 -5 62 -32 120 -61 436 -220 901 -618 1224 -1049 95 -127 168 -229 191 -268 6 -9 22 -35 35 -57 14 -23 30 -50 37 -60 12 -20 36 -64 99 -180 88 -163 194 -394 194 -423 0 -8 6 -26 14 -40 13 -25 22 -49 58 -147 35 -93 59 -174 79 -255 14 -59 30 -123 40 -157 6 -18 14 -54 19 -80 5 -27 13 -66 18 -88 10 -37 26 -133 51 -295 6 -36 15 -130 21 -210 6 -80 15 -189 20 -244 17 -174 1 -552 -35 -802 -8 -56 -15 -119 -15 -140 0 -21 -6 -63 -14 -93 -8 -31 -22 -92 -31 -136 -9 -44 -23 -103 -31 -131 -7 -28 -14 -59 -14 -69 0 -9 -7 -40 -16 -69 -9 -28 -22 -71 -29 -96 -35 -128 -73 -246 -105 -330 -12 -30 -25 -67 -30 -81 -4 -14 -12 -34 -18 -45 -6 -10 -25 -55 -42 -99 -18 -44 -44 -102 -57 -130 -30 -60 -101 -194 -113 -215 -55 -92 -130 -222 -130 -225 0 -5 -102 -158 -110 -165 -3 -3 -28 -34 -55 -70 -86 -113 -240 -292 -314 -365 -39 -38 -71 -77 -71 -87 0 -18 5 -24 123 -148 40 -42 116 -125 169 -185 53 -61 115 -130 138 -155 23 -25 67 -76 98 -115 32 -38 66 -79 78 -90 11 -11 47 -51 79 -90 63 -74 111 -129 160 -179 17 -17 47 -51 66 -76 40 -49 278 -322 288 -330 4 -3 31 -34 60 -70 49 -59 167 -195 296 -340 85 -95 155 -178 178 -207 11 -15 51 -59 88 -98 72 -76 123 -134 158 -179 12 -17 53 -64 92 -107 38 -42 82 -94 97 -115 l28 -39 18 -72 18 -72 -17 -58 c-29 -97 -55 -156 -95 -209 -45 -60 -152 -174 -164 -174 -4 0 -25 -13 -45 -28 -45 -36 -123 -72 -291 -137 -320 -124 -902 -55 -1175 139 -16 11 -42 28 -57 36 -81 44 -256 226 -588 610 -36 41 -105 120 -155 175 -49 55 -112 127 -140 160 -27 33 -54 65 -60 71 -5 6 -40 44 -76 85 -37 41 -136 152 -221 247 l-156 173 -17 45 -17 46 17 38 c16 35 63 80 84 80 5 0 22 6 38 14 15 8 48 22 73 32 255 98 442 251 522 428 l18 38 0 74 0 73 -17 38 c-10 21 -21 43 -26 48 -32 43 -119 148 -148 180 -21 22 -57 64 -80 94 -24 30 -60 73 -79 97 -19 23 -57 71 -85 106 -27 35 -52 65 -55 68 -3 3 -25 30 -50 60 -25 30 -47 57 -50 60 -3 3 -41 50 -85 105 -44 54 -86 106 -93 115 -7 8 -34 42 -60 75 -26 33 -52 65 -58 70 -6 6 -26 30 -45 55 -26 35 -193 241 -327 405 -10 11 -35 43 -56 70 -22 28 -44 55 -50 60 -35 32 -86 97 -86 109 0 8 37 43 83 79 146 114 467 470 467 517 0 6 6 13 14 16 8 3 17 13 20 22 7 20 27 54 43 73 12 16 74 130 108 199 65 133 90 193 126 310 12 36 27 80 35 98 8 18 14 45 14 59 0 14 6 49 14 77 8 28 23 94 33 146 l18 95 -1 275 0 275 -17 90 c-35 177 -48 240 -59 270 -5 17 -14 46 -18 65 -10 44 -45 144 -76 218 -8 17 -20 47 -28 65 -16 38 -53 116 -66 137 -5 8 -11 22 -14 30 -23 58 -179 298 -254 390 -183 222 -412 422 -637 556 -172 103 -428 219 -535 244 -19 4 -48 13 -65 18 -124 42 -327 73 -573 88 l-114 7 -131 -12 c-140 -13 -280 -35 -361 -57 -27 -8 -60 -14 -72 -14 -12 0 -35 -7 -50 -15 -16 -8 -37 -15 -46 -15 -16 0 -45 -9 -143 -47 -129 -50 -385 -180 -452 -229 -17 -13 -34 -24 -38 -24 -35 0 -349 -271 -454 -391 -99 -114 -114 -131 -138 -167 -13 -18 -32 -43 -44 -55 -11 -12 -25 -31 -30 -42 -6 -11 -15 -29 -22 -40 -49 -79 -63 -103 -74 -120 -19 -31 -138 -275 -156 -322 -33 -84 -46 -119 -63 -173 -9 -30 -23 -72 -30 -93 -8 -20 -14 -50 -14 -66 0 -16 -7 -48 -15 -71 -8 -23 -15 -63 -15 -89 -1 -25 -7 -73 -15 -106 l-15 -60 0 -225 c0 -124 5 -252 11 -285 5 -33 14 -91 19 -130 11 -90 40 -215 72 -310 5 -16 13 -43 18 -60 5 -16 18 -55 30 -85 12 -30 25 -68 30 -83 9 -30 115 -241 146 -293 274 -454 598 -756 1044 -974 58 -29 117 -58 132 -66 14 -8 35 -14 46 -14 12 0 23 -4 26 -9 3 -4 38 -18 78 -31 40 -12 87 -27 103 -32 17 -6 50 -14 75 -18 25 -4 59 -12 75 -18 53 -19 156 -33 329 -44 l168 -11 152 11 c143 10 209 20 301 43 22 6 56 13 75 15 l35 5 86 -118 c126 -171 311 -415 331 -435 10 -10 18 -21 18 -26 0 -4 10 -18 23 -32 12 -14 72 -90 132 -170 60 -80 129 -170 152 -200 24 -30 112 -145 195 -255 83 -110 154 -202 158 -205 3 -3 19 -23 35 -45 17 -22 32 -42 36 -45 3 -3 34 -42 70 -88 112 -146 153 -197 182 -227 l27 -30 0 -25 0 -25 -168 -171 c-192 -197 -516 -534 -617 -644 -38 -41 -126 -133 -195 -204 -69 -71 -143 -148 -165 -171 -22 -23 -92 -96 -155 -161 -63 -66 -221 -228 -350 -362 -392 -405 -463 -477 -502 -505 l-37 -27 -64 0 -64 0 -39 28 c-21 16 -86 80 -144 142 -58 62 -116 125 -130 139 -14 14 -93 98 -175 186 -82 88 -178 191 -214 229 -81 83 -96 99 -196 206 -201 215 -352 375 -375 399 -14 14 -84 89 -156 166 -72 77 -151 161 -175 186 -24 26 -96 102 -159 170 -63 68 -158 169 -210 224 -219 232 -380 404 -435 465 -33 36 -64 70 -70 76 -5 7 -73 79 -150 160 -192 203 -277 294 -306 327 -13 16 -41 48 -62 70 -73 81 -327 433 -327 454 0 3 -19 38 -43 77 -66 109 -197 393 -226 488 -5 18 -21 64 -35 102 -14 38 -26 77 -26 87 0 10 -6 33 -14 51 -35 81 -96 390 -118 593 l-13 120 -3 2710 -2 2710 16 45 c9 25 31 63 49 85 l32 40 49 25 49 24 70 5 c101 8 4593 6 4635 -2z m-520 -2917 c574 -111 995 -553 1086 -1140 26 -164 14 -365 -31 -525 -38 -133 -42 -145 -84 -235 -20 -43 -112 -203 -121 -210 -3 -3 -27 -32 -52 -65 -102 -134 -289 -288 -438 -361 -130 -63 -218 -93 -380 -128 l-75 -16 -156 0 -156 0 -49 15 c-27 8 -62 15 -79 15 -16 0 -43 7 -59 15 -15 8 -36 15 -46 15 -25 0 -215 85 -275 122 -247 156 -427 354 -539 593 -10 22 -23 48 -27 57 -10 19 -43 120 -63 193 -40 138 -54 395 -29 515 41 196 62 270 92 328 5 9 24 49 43 87 172 351 509 622 873 704 50 11 108 25 130 30 22 5 105 9 185 10 l145 1 105 -20z"/> <path d="M8480 14098 c-85 -4 -303 -7 -485 -7 -366 2 -477 2 -532 0 -112 -5 -2010 -1 -2186 4 l-209 6 -14 -12 -14 -11 -55 7 -56 7 -13 -11 c-7 -6 -27 -12 -45 -14 -17 -2 -37 -9 -43 -15 -7 -7 -20 -12 -30 -12 -40 0 -120 -108 -99 -134 l10 -12 -13 -26 -14 -26 -1 -438 c-1 -240 -4 -441 -7 -446 -7 -11 -7 -245 0 -256 3 -5 5 -819 5 -1808 0 -989 0 -1818 1 -1841 0 -24 -4 -52 -10 -62 l-10 -20 -1 -134 -1 -134 12 -23 c6 -12 16 -59 20 -104 13 -125 30 -229 40 -251 10 -22 27 -95 39 -165 4 -25 13 -56 19 -70 5 -14 16 -47 23 -75 7 -27 20 -67 31 -87 10 -21 18 -45 18 -55 0 -10 13 -43 30 -73 16 -30 29 -64 30 -74 0 -26 125 -278 154 -313 13 -16 33 -49 45 -75 12 -26 33 -55 47 -65 l26 -17 34 -72 35 -72 19 -5 c11 -3 23 -12 26 -21 3 -9 21 -32 40 -53 19 -20 44 -57 56 -82 24 -51 74 -111 92 -111 13 0 76 -61 76 -74 0 -4 29 -36 65 -71 36 -35 65 -68 65 -72 0 -5 32 -40 70 -78 39 -38 70 -74 70 -79 0 -5 29 -38 65 -72 36 -34 65 -67 65 -73 0 -6 9 -11 19 -11 18 0 71 -52 71 -69 0 -4 11 -13 25 -19 14 -6 25 -18 25 -26 0 -7 7 -16 15 -19 8 -4 25 -23 39 -45 13 -21 45 -58 70 -83 25 -24 46 -51 46 -60 0 -19 73 -89 92 -89 15 0 98 -80 98 -95 0 -6 16 -24 35 -39 19 -16 35 -32 35 -36 0 -4 65 -74 145 -155 80 -82 145 -152 145 -157 0 -5 57 -66 128 -136 142 -142 285 -297 291 -315 2 -7 31 -39 65 -72 34 -33 65 -68 69 -77 3 -10 13 -18 20 -18 8 0 20 -6 26 -14 l12 -14 -20 -7 c-12 -3 -21 -10 -21 -15 0 -16 21 -22 35 -10 l14 12 36 -22 c19 -12 35 -26 35 -32 0 -5 16 -24 35 -40 19 -17 39 -46 46 -65 l11 -33 14 0 14 0 0 -20 0 -20 20 0 19 0 56 -57 c30 -32 55 -63 55 -68 0 -6 13 -22 30 -35 l29 -25 1 -27 c0 -14 3 -34 6 -42 l6 -17 14 12 c8 6 14 18 14 25 0 8 5 14 10 14 6 0 10 -7 10 -15 0 -21 174 -195 194 -195 l16 0 0 -20 0 -20 28 -7 c35 -9 147 -8 190 2 l33 7 -6 19 -6 19 25 0 26 0 0 13 c0 16 52 67 68 67 7 0 17 11 22 25 5 13 22 31 37 39 15 8 93 81 172 161 l143 146 14 -5 14 -5 -6 24 -6 25 16 25 c9 14 23 25 32 25 8 0 55 40 104 89 l90 89 11 31 c6 17 16 31 21 31 13 0 89 76 113 113 10 16 31 35 47 43 15 8 40 33 53 55 14 22 34 43 43 46 20 8 88 77 103 104 5 10 16 19 24 19 8 0 19 10 26 23 6 12 49 59 95 104 46 44 84 86 84 93 0 6 54 64 119 128 66 64 122 127 126 140 4 13 21 39 38 58 l30 36 5 54 4 54 -12 29 c-6 16 -18 32 -25 35 -8 3 -28 33 -45 67 -17 35 -44 74 -60 87 -17 14 -30 30 -30 37 0 7 -7 18 -16 26 l-15 13 5 22 6 23 -10 6 c-6 4 -17 1 -25 -5 -19 -16 -32 -6 -56 45 -11 24 -29 51 -40 61 -10 9 -19 23 -19 30 0 7 -18 32 -40 56 -22 24 -40 48 -40 55 0 6 -11 20 -25 31 -14 11 -25 22 -25 25 0 2 -18 24 -40 48 -22 24 -43 53 -46 63 -4 11 -24 37 -45 60 -22 22 -39 45 -39 51 0 5 -9 16 -20 23 -11 7 -20 18 -20 25 0 8 -11 24 -25 37 -14 13 -25 29 -25 36 0 7 -9 18 -20 24 -11 6 -20 15 -20 21 0 5 -16 26 -35 46 -19 20 -35 44 -35 53 0 9 -9 25 -20 35 -11 10 -20 23 -20 28 0 6 -36 45 -80 87 -44 42 -80 82 -80 88 0 7 -20 21 -45 32 -25 11 -45 24 -45 30 0 5 -8 10 -17 10 -9 0 -25 8 -36 17 l-19 18 -112 -1 c-161 -1 -339 -9 -351 -15 -5 -3 -38 -7 -73 -8 l-62 -2 -6 16 -6 15 -35 0 c-19 0 -44 5 -56 11 -12 7 -69 20 -126 30 l-106 18 -9 -9 -10 -10 -18 16 c-15 14 -41 23 -118 38 -8 1 -39 6 -68 11 l-53 8 -10 18 -10 19 -27 0 c-15 1 -52 14 -82 30 -30 17 -65 30 -76 30 -12 0 -38 13 -58 30 -21 16 -62 36 -92 45 l-54 15 -10 20 -11 20 -30 0 -31 0 -20 25 c-11 14 -25 25 -32 25 -7 0 -21 9 -30 19 -10 11 -33 27 -52 36 -19 9 -34 20 -34 24 0 5 -8 12 -17 15 -30 11 -63 32 -84 55 -11 11 -25 21 -32 21 -7 0 -45 36 -85 80 -41 44 -79 80 -84 80 -10 0 -87 76 -140 135 -32 37 -55 55 -67 55 -16 0 -48 40 -79 98 -13 24 -41 61 -63 84 -21 22 -39 45 -39 50 0 20 -40 96 -54 101 -8 3 -19 22 -26 41 l-12 36 -22 6 -22 5 -62 125 c-34 68 -62 132 -62 142 0 9 -7 30 -15 46 -8 15 -15 34 -15 41 0 7 -11 20 -24 28 l-23 16 -2 51 -1 52 -18 42 c-28 60 -42 108 -36 118 3 5 2 14 -3 21 -5 7 -18 48 -28 92 -9 44 -21 89 -25 100 -5 11 -9 27 -9 35 0 39 -14 136 -21 145 -4 6 -8 119 -9 253 -1 133 -4 249 -7 257 -3 8 -2 20 3 27 4 7 8 29 9 48 2 62 25 224 34 241 4 9 11 42 15 75 8 67 20 116 41 157 8 16 14 39 14 52 0 13 5 27 10 30 6 4 8 15 5 25 l-6 19 19 10 20 10 6 54 c4 29 18 72 31 96 14 24 25 49 25 56 0 7 7 18 15 25 9 7 14 19 11 27 -7 16 50 133 64 133 5 0 32 46 59 103 l49 103 26 17 26 17 0 23 c0 30 34 84 59 92 11 3 23 16 27 28 6 22 12 30 73 95 17 19 31 41 31 50 0 9 5 24 10 32 l10 15 14 -17 c7 -10 19 -18 26 -18 l12 0 -5 27 -5 28 84 86 85 86 23 -4 23 -5 19 19 c11 11 27 23 37 26 l17 6 0 21 0 20 25 10 25 10 0 19 0 20 23 7 c21 6 34 16 80 60 12 12 44 32 72 44 27 12 54 29 60 36 13 18 445 235 455 229 4 -3 28 6 52 20 23 14 54 25 66 25 13 0 36 6 50 14 42 21 92 35 107 30 7 -3 16 -1 20 5 3 6 19 11 35 11 16 0 32 5 35 10 4 6 15 8 25 5 10 -3 21 -1 25 5 3 5 25 10 49 10 23 0 47 5 53 11 l11 11 6 -11 c10 -16 51 -14 65 3 l12 14 67 5 c37 3 82 8 100 12 l34 8 23 -13 24 -13 28 6 c36 8 227 9 323 1 l74 -6 20 -14 20 -14 61 0 61 0 42 -20 42 -20 37 6 38 6 30 -16 c17 -9 40 -16 52 -16 12 0 25 -5 28 -11 4 -6 13 -8 20 -5 18 7 71 -20 79 -39 3 -8 15 -15 26 -15 12 0 30 -5 40 -10 11 -6 43 -15 72 -20 l53 -10 143 -70 c78 -39 142 -75 142 -81 0 -5 24 -21 54 -35 30 -14 57 -32 60 -40 3 -8 13 -14 23 -14 10 0 36 -16 57 -35 22 -19 44 -35 50 -35 6 0 19 -9 31 -20 11 -11 55 -53 99 -94 l78 -74 29 -6 29 -6 9 -22 c10 -25 66 -88 80 -88 4 0 16 -10 27 -21 10 -12 29 -25 40 -29 l22 -9 -6 -26 -5 -27 37 -32 c20 -18 36 -36 36 -41 0 -4 12 -22 28 -40 15 -18 36 -45 47 -60 11 -14 37 -46 57 -69 21 -24 49 -68 62 -98 13 -30 35 -67 49 -84 29 -34 147 -267 147 -289 0 -8 4 -23 9 -33 51 -100 61 -123 61 -143 0 -13 7 -33 15 -43 8 -11 15 -32 15 -47 0 -15 4 -30 9 -34 5 -3 13 -30 16 -60 4 -31 11 -58 17 -61 5 -3 6 -14 3 -24 -3 -10 -1 -21 5 -25 5 -3 10 -19 10 -34 0 -15 7 -36 15 -47 8 -10 15 -36 15 -56 0 -20 4 -39 8 -42 12 -7 17 -172 16 -488 l-1 -277 -10 -13 c-10 -12 -25 -108 -24 -153 0 -10 -4 -24 -9 -30 -4 -5 -11 -37 -15 -70 -8 -68 -20 -117 -41 -158 -8 -16 -14 -39 -14 -51 0 -12 -7 -31 -15 -42 -8 -10 -15 -31 -15 -46 0 -15 -6 -31 -14 -35 -15 -9 -56 -89 -56 -110 0 -22 -31 -77 -52 -92 l-19 -13 5 -14 c3 -8 -19 -64 -50 -125 l-55 -110 -20 6 -21 7 4 -44 3 -43 -17 3 -18 3 -23 -53 c-13 -29 -34 -62 -46 -72 -11 -11 -21 -25 -21 -31 0 -7 -20 -31 -45 -54 -25 -23 -45 -48 -45 -57 0 -9 -18 -33 -40 -54 -22 -21 -40 -45 -40 -54 0 -8 -9 -21 -19 -28 -42 -30 -85 -160 -56 -171 19 -8 55 -80 55 -112 l0 -26 30 -17 c16 -9 30 -22 30 -29 0 -7 9 -17 20 -23 11 -6 20 -15 20 -21 0 -5 18 -29 40 -51 22 -23 40 -45 40 -49 0 -4 13 -21 29 -38 16 -17 33 -45 36 -62 l7 -30 36 -24 c21 -14 46 -36 57 -51 11 -14 30 -35 43 -46 12 -12 22 -28 22 -35 0 -7 18 -31 41 -54 22 -22 45 -53 50 -68 6 -16 26 -41 44 -56 19 -15 35 -32 35 -37 0 -5 14 -21 30 -35 17 -14 37 -40 45 -59 l14 -33 24 -6 c22 -6 87 -73 87 -91 0 -4 15 -22 33 -40 17 -18 52 -56 77 -83 l45 -50 22 -1 c12 0 26 -7 31 -17 l10 -16 13 5 14 6 -1 46 -2 47 -17 19 -18 20 7 46 c3 26 11 53 17 60 6 8 9 20 6 28 l-6 15 21 27 21 26 -10 18 -11 17 31 36 c52 60 88 112 108 157 11 23 38 65 61 93 24 28 50 68 60 89 9 21 21 38 26 38 5 0 17 17 28 38 10 20 27 46 36 57 10 11 29 33 43 49 14 16 25 35 25 42 0 7 11 26 25 42 13 16 36 52 50 80 14 28 32 55 39 59 7 4 27 38 44 76 18 37 37 67 42 67 14 0 110 205 110 234 0 12 4 26 9 32 18 17 101 192 101 211 0 11 7 28 15 39 8 10 15 31 15 45 0 14 7 34 15 45 8 10 15 31 15 45 0 14 7 34 15 45 8 10 15 31 15 46 0 15 4 29 9 32 4 3 14 34 21 68 7 35 23 82 36 105 l24 41 5 74 c5 90 22 177 35 194 l11 12 -7 26 -6 26 10 13 c10 13 22 94 28 187 2 30 9 105 15 165 l12 110 0 325 c1 302 -6 443 -21 480 -3 8 -7 33 -8 55 -1 22 -7 67 -14 100 -6 33 -11 70 -10 82 0 12 -5 25 -10 28 -6 3 -10 19 -10 35 0 16 -4 32 -10 35 l-9 6 6 29 5 30 -11 14 c-6 7 -12 35 -14 62 -2 27 -7 56 -12 64 -17 26 -35 84 -35 113 0 15 -7 41 -15 58 -9 16 -13 34 -10 39 3 5 2 17 -3 27 -12 23 -32 80 -41 118 -4 17 -18 49 -29 72 -12 23 -22 50 -22 60 0 10 -12 40 -26 67 -30 56 -54 140 -47 166 l5 18 -21 7 -21 6 -32 62 c-17 34 -33 75 -35 91 -1 17 -12 39 -22 50 -10 12 -26 36 -35 54 -9 17 -21 32 -26 32 -5 0 -24 29 -41 65 -17 36 -35 68 -40 71 -5 3 -9 12 -9 21 0 16 -12 32 -57 75 -13 12 -23 28 -23 35 0 7 -11 23 -25 35 -14 12 -25 27 -25 33 0 6 -11 22 -25 35 -14 13 -25 27 -25 32 0 4 -8 16 -17 27 -39 40 -98 113 -102 124 -2 6 -19 25 -38 41 l-33 30 6 18 6 19 -29 10 -29 10 -99 104 -99 105 -18 0 -17 0 -17 32 c-9 17 -28 41 -41 52 -14 12 -34 29 -44 39 -10 9 -21 17 -25 17 -16 0 -78 60 -95 93 l-19 37 -26 0 -26 0 -30 25 c-16 14 -35 25 -43 25 -7 0 -18 7 -25 15 -7 8 -20 15 -29 15 -9 0 -34 17 -56 38 l-40 38 -130 62 c-71 35 -138 67 -147 73 -10 5 -26 9 -35 9 -10 0 -56 21 -102 45 -45 25 -92 45 -103 45 -24 0 -81 28 -91 46 -4 8 -16 14 -25 14 -9 0 -35 7 -57 15 -22 8 -59 14 -82 15 -23 0 -45 5 -48 10 l-6 10 -24 -6 -23 -6 -6 11 -7 11 -53 0 -52 0 -20 15 c-10 8 -31 15 -46 15 -15 0 -30 5 -34 11 l-6 11 -31 -6 c-16 -3 -35 -2 -41 3 -12 9 -90 21 -143 21 -17 0 -34 4 -38 10 l-6 10 -59 0 -59 0 -7 11 -6 11 -32 -5 c-17 -3 -44 -9 -59 -13 l-28 -7 -39 18 -39 17 -27 -6 c-16 -4 -75 -8 -133 -8 l-105 0 -4 11 -4 11 -116 -2 c-64 0 -187 -5 -272 -10z"/> <path d="M11523 6802 c-11 -7 -16 -26 -14 -49 l1 -13 25 0 26 0 8 23 9 22 -10 13 c-12 14 -27 15 -45 4z"/> <path d="M11506 6688 l-29 -29 12 -12 12 -12 15 20 14 19 36 -37 36 -36 -7 -30 -6 -29 17 -10 18 -10 2 -62 c2 -35 7 -67 13 -73 6 -6 11 -37 11 -68 l0 -58 -11 -7 -11 -6 6 -42 7 -42 -26 -49 c-14 -28 -25 -59 -25 -71 0 -11 -13 -36 -30 -54 -16 -18 -30 -40 -30 -47 0 -8 -7 -16 -15 -19 -9 -4 -27 -31 -40 -60 -14 -30 -33 -58 -42 -61 -27 -10 -258 -245 -276 -280 l-16 -30 8 -53 8 -53 21 -16 c11 -9 23 -26 26 -38 4 -11 13 -24 21 -27 l15 -5 0 -25 c0 -14 -4 -28 -10 -31 -5 -3 -10 -11 -10 -17 l0 -11 40 6 40 5 22 -36 c26 -44 74 -91 117 -114 l31 -17 0 -25 0 -26 20 -12 c11 -7 20 -18 20 -25 0 -13 89 -103 102 -103 5 0 8 -6 8 -12 0 -7 16 -31 35 -52 19 -22 35 -44 35 -49 0 -6 29 -39 65 -74 36 -35 65 -68 65 -73 0 -5 16 -16 35 -24 l35 -15 0 -19 c0 -10 16 -33 35 -52 19 -19 35 -40 35 -47 0 -7 6 -13 13 -13 8 0 51 -36 98 -80 103 -98 117 -110 127 -110 5 0 17 -9 26 -19 19 -21 226 -126 271 -137 16 -4 40 -13 54 -20 14 -8 36 -14 48 -14 12 0 25 -5 28 -10 l7 -11 51 1 c29 0 96 -2 150 -6 l98 -6 17 15 17 15 100 5 100 6 30 15 c17 9 37 16 45 16 26 0 83 33 143 82 31 25 60 48 64 50 16 6 53 68 53 87 0 10 7 21 15 25 l15 5 0 33 0 33 -27 50 -27 50 -1 40 0 40 -30 14 c-36 16 -75 50 -75 65 0 6 -23 31 -50 55 l-50 45 5 15 5 16 -65 60 c-36 33 -65 62 -65 66 0 4 -18 26 -40 50 -22 24 -40 48 -40 53 0 5 -30 40 -67 77 -94 95 -173 184 -173 194 0 4 -21 29 -47 55 -73 73 -188 200 -192 213 -2 7 -18 26 -35 43 -17 17 -40 44 -51 59 -11 16 -44 51 -72 79 -29 28 -53 57 -53 64 0 7 -20 35 -45 61 -25 26 -45 53 -45 58 0 13 -33 43 -48 43 -12 0 -94 83 -101 102 -2 5 -23 28 -47 50 -45 42 -74 88 -74 120 l0 18 15 0 c8 0 15 5 15 10 l0 11 -32 -6 -33 -6 -48 43 c-26 24 -47 48 -47 54 0 6 -16 24 -35 40 l-35 29 0 27 0 28 -22 4 c-13 3 -34 4 -48 3 l-25 -2 0 20 c0 27 -34 62 -65 67 l-25 3 -1 22 c-1 20 -50 74 -84 93 l-15 8 -29 -30z"/> <path d="M8521 11182 c-69 -1 -130 -7 -135 -11 -6 -5 -36 -12 -66 -16 -151 -18 -218 -29 -245 -40 -27 -11 -55 -41 -55 -60 l0 -15 -18 0 c-22 0 -88 -33 -116 -58 -12 -11 -29 -22 -38 -25 -10 -4 -18 -12 -18 -19 0 -7 -30 -42 -66 -76 l-65 -64 -21 5 -20 6 5 -20 c3 -11 0 -25 -7 -32 -19 -20 -146 -285 -146 -305 0 -10 -7 -27 -15 -38 -8 -10 -15 -31 -15 -46 0 -15 -5 -30 -11 -33 l-10 -7 6 -29 7 -30 -12 -14 -11 -13 5 -124 c3 -68 5 -137 5 -155 1 -18 6 -35 11 -38 6 -3 10 -19 10 -35 0 -16 5 -32 10 -35 6 -3 10 -15 10 -26 0 -11 8 -36 19 -57 10 -20 21 -54 25 -75 l7 -37 29 -30 c17 -17 30 -37 30 -45 0 -8 11 -17 24 -21 l24 -6 11 -41 11 -42 32 -15 33 -15 3 -25 c2 -13 13 -30 23 -38 10 -7 19 -21 19 -31 l0 -18 25 -11 c14 -7 35 -12 46 -12 11 0 30 -11 43 -25 13 -14 31 -25 39 -25 l17 0 6 -26 7 -26 33 -14 c19 -8 34 -19 34 -24 0 -6 16 -10 35 -10 20 0 55 -10 78 -22 23 -13 49 -23 57 -23 23 -2 73 -15 92 -25 9 -6 30 -7 46 -4 l30 6 6 -11 7 -11 119 0 119 0 7 11 6 11 33 -6 33 -6 6 16 6 16 26 -6 26 -7 14 11 c7 7 17 9 23 6 5 -3 29 5 53 19 23 14 55 25 70 25 15 0 30 5 33 10 3 6 17 10 29 10 l24 0 5 20 5 20 32 11 31 11 -6 16 -6 15 13 9 c7 4 22 8 33 8 30 0 155 104 155 128 0 6 6 15 14 19 8 4 16 19 18 33 l3 25 21 9 c12 6 29 22 39 38 9 15 23 28 31 28 8 0 14 8 14 17 0 9 9 27 21 39 l21 22 8 69 c11 84 17 101 42 114 l19 10 -6 19 c-3 10 -1 21 5 25 5 3 10 25 10 49 0 23 3 46 8 50 18 19 19 271 0 326 -17 49 -28 90 -34 125 -3 22 -39 106 -80 186 l-73 147 6 21 5 21 -11 0 c-6 0 -14 -7 -17 -15 l-6 -16 -14 12 c-8 6 -14 16 -14 21 0 15 -167 178 -183 178 -8 0 -28 5 -46 11 l-31 11 0 18 0 18 -84 41 c-46 23 -91 41 -99 41 -8 0 -28 7 -43 15 -16 8 -46 15 -66 15 -20 0 -40 5 -43 11 -4 6 -14 8 -22 5 -8 -3 -22 -3 -31 2 -9 4 -73 6 -141 4z"/> </g> </svg>