<svg xmlns="http://www.w3.org/2000/svg" version="1.0" width="1820" height="1820" viewBox="0 0 1820 1820" preserveAspectRatio="xMidYMid meet"><rect id="svg_border_rect" x="1.5" y="1.5" width="1817" height="1817" fill="none" stroke="#000000" stroke-width="3"/><g id="svg_border_group" transform="translate(10,10)"><g xmlns:default="http://www.w3.org/2000/svg" transform="translate(0.000000,1800.000000) scale(0.100000,-0.100000)" fill="#000000" stroke="none"><path d="M4635 14379 l-70 -5 -49 -24 -49 -25 -32 -40 c-18 -22 -40 -60 -49 -85 l-16 -45 2 -2710 3 -2710 13 -120 c22 -203 83 -512 118 -593 8 -18 14 -41 14 -51 0 -10 12 -49 26 -87 14 -38 30 -84 35 -102 29 -95 160 -379 226 -488 24 -39 43 -74 43 -77 0 -21 254 -373 327 -454 21 -22 49 -54 62 -70 29 -33 114 -124 306 -327 77 -81 145 -153 150 -160 6 -6 37 -40 70 -76 55 -61 216 -233 435 -465 52 -55 147 -156 210 -224 63 -68 135 -144 159 -170 24 -25 103 -109 175 -186 72 -77 142 -152 156 -166 23 -24 174 -184 375 -399 100 -107 115 -123 196 -206 36 -38 132 -141 214 -229 82 -88 161 -172 175 -186 14 -14 72 -77 130 -139 58 -62 123 -126 144 -142 l39 -28 64 0 64 0 37 27 c39 28 110 100 502 505 129 134 287 296 350 362 63 65 133 138 155 161 22 23 96 100 165 171 69 71 157 163 195 204 101 110 425 447 617 644 l168 171 0 25 0 25 -27 30 c-29 30 -70 81 -182 227 -36 46 -67 85 -70 88 -4 3 -19 23 -36 45 -16 22 -32 42 -35 45 -4 3 -75 95 -158 205 -83 110 -171 225 -195 255 -23 30 -92 120 -152 200 -60 80 -120 156 -132 170 -13 14 -23 28 -23 32 0 5 -8 16 -18 26 -20 20 -205 264 -331 435 l-86 118 -35 -5 c-19 -2 -53 -9 -75 -15 -92 -23 -158 -33 -301 -43 l-152 -11 -168 11 c-173 11 -276 25 -329 44 -16 6 -50 14 -75 18 -25 4 -58 12 -75 18 -16 5 -63 20 -103 32 -40 13 -75 27 -78 31 -3 5 -14 9 -26 9 -11 0 -32 6 -46 14 -15 8 -74 37 -132 66 -446 218 -770 520 -1044 974 -31 52 -137 263 -146 293 -5 15 -18 53 -30 83 -12 30 -25 69 -30 85 -5 17 -13 44 -18 60 -32 95 -61 220 -72 310 -5 39 -14 97 -19 130 -6 33 -11 161 -11 285 l0 225 15 60 c8 33 14 81 15 106 0 26 7 66 15 89 8 23 15 55 15 71 0 16 6 46 14 66 7 21 21 63 30 93 17 54 30 89 63 173 18 47 137 291 156 322 11 17 25 41 74 120 7 11 16 29 22 40 5 11 19 30 30 42 12 12 31 37 44 55 24 36 39 53 138 167 63 72 106 115 209 205 55 48 237 186 245 186 4 0 21 11 38 24 67 49 323 179 452 229 98 38 127 47 143 47 9 0 30 7 46 15 15 8 38 15 50 15 12 0 45 6 72 14 81 22 221 44 361 57 l131 12 114 -7 c246 -15 449 -46 573 -88 17 -5 46 -14 65 -18 71 -16 158 -52 335 -136 279 -133 526 -319 745 -559 100 -110 119 -135 241 -316 39 -59 95 -153 105 -179 3 -8 9 -22 14 -30 13 -21 50 -99 66 -137 8 -18 20 -48 28 -65 31 -74 66 -174 76 -218 4 -19 13 -48 18 -65 11 -30 24 -93 59 -270 l17 -90 0 -275 1 -275 -18 -95 c-10 -52 -25 -118 -33 -146 -8 -28 -14 -63 -14 -77 0 -14 -6 -41 -14 -59 -8 -18 -23 -62 -35 -98 -36 -117 -61 -177 -126 -310 -34 -69 -96 -183 -108 -199 -16 -19 -36 -53 -43 -73 -3 -9 -12 -19 -20 -22 -8 -3 -14 -10 -14 -16 0 -47 -321 -403 -467 -517 -46 -36 -83 -71 -83 -79 0 -12 51 -77 86 -109 6 -5 28 -32 50 -60 21 -27 46 -59 56 -70 134 -164 301 -370 327 -405 19 -25 39 -49 45 -55 6 -5 32 -37 58 -70 26 -33 53 -67 60 -75 7 -9 49 -61 93 -115 44 -55 82 -102 85 -105 3 -3 25 -30 50 -60 25 -30 47 -57 50 -60 3 -3 28 -33 55 -68 28 -35 66 -83 85 -106 19 -24 55 -67 79 -97 23 -30 59 -72 80 -94 29 -32 116 -137 148 -180 5 -5 16 -27 26 -48 l17 -38 0 -73 0 -74 -18 -38 c-80 -177 -267 -330 -522 -428 -25 -10 -58 -24 -73 -32 -16 -8 -33 -14 -38 -14 -21 0 -68 -45 -84 -80 l-17 -38 17 -46 17 -45 156 -173 c85 -95 184 -206 221 -247 36 -41 71 -79 76 -85 6 -6 33 -38 60 -71 28 -33 91 -105 140 -160 50 -55 119 -134 155 -175 332 -384 507 -566 588 -610 15 -8 41 -25 57 -36 273 -194 855 -263 1175 -139 168 65 246 101 291 137 20 15 41 28 45 28 12 0 119 114 164 174 40 53 66 112 95 209 l17 58 -18 72 -18 72 -28 39 c-15 21 -59 73 -97 115 -39 43 -80 90 -92 107 -35 45 -86 103 -158 179 -37 39 -77 83 -88 98 -23 29 -93 112 -178 207 -129 145 -247 281 -296 340 -29 36 -56 67 -60 70 -10 8 -248 281 -288 330 -19 25 -49 59 -66 76 -49 50 -97 105 -160 179 -32 39 -68 79 -79 90 -12 11 -46 52 -78 90 -31 39 -75 90 -98 115 -23 25 -85 94 -138 155 -53 60 -129 143 -169 185 -118 124 -123 130 -123 148 0 10 32 49 71 87 74 73 228 252 314 365 27 36 52 67 55 70 8 7 110 160 110 165 0 3 75 133 130 225 12 21 83 155 113 215 13 28 39 86 57 130 17 44 36 89 42 99 6 11 14 31 18 45 5 14 18 51 30 81 32 84 70 202 105 330 7 25 20 68 29 96 9 29 16 60 16 69 0 10 7 41 14 69 8 28 22 87 31 131 9 44 23 105 31 136 8 30 14 72 14 93 0 21 7 84 15 140 36 250 52 628 35 802 -5 55 -14 164 -20 244 -6 80 -15 174 -21 210 -25 162 -41 258 -51 295 -5 22 -13 61 -18 88 -5 26 -13 62 -19 80 -10 34 -26 98 -40 157 -20 81 -44 162 -79 255 -36 98 -45 122 -58 147 -8 14 -14 32 -14 40 0 29 -106 260 -194 423 -63 116 -87 160 -99 180 -7 10 -23 37 -37 60 -13 22 -29 48 -35 57 -295 494 -900 1057 -1415 1317 -58 29 -112 56 -120 61 -46 24 -185 83 -270 115 -94 35 -118 43 -150 54 -39 14 -127 39 -180 52 -124 30 -159 39 -190 47 -19 5 -80 17 -135 26 -55 9 -125 21 -155 26 -30 6 -111 14 -180 20 -69 6 -141 13 -160 17 -42 8 -4534 10 -4635 2z m4237 -280 l4 -11 105 0 c58 0 117 4 133 8 l27 6 39 -17 39 -18 28 7 c15 4 42 10 59 13 l32 5 6 -11 7 -11 59 0 59 0 6 -10 c4 -6 21 -10 38 -10 53 0 131 -12 143 -21 6 -5 25 -6 41 -3 l31 6 6 -11 c4 -6 19 -11 34 -11 15 0 36 -7 46 -15 l20 -15 52 0 53 0 7 -11 6 -11 23 6 24 6 6 -10 c3 -5 25 -10 48 -10 23 -1 60 -7 82 -15 22 -8 48 -15 57 -15 9 0 21 -6 25 -14 10 -18 67 -46 91 -46 11 0 58 -20 103 -45 46 -24 92 -45 102 -45 9 0 25 -4 35 -9 9 -6 76 -38 147 -73 l130 -62 40 -38 c22 -21 47 -38 56 -38 9 0 22 -7 29 -15 7 -8 18 -15 25 -15 8 0 27 -11 43 -25 l30 -25 26 0 26 0 19 -37 c17 -33 79 -93 95 -93 4 0 15 -8 25 -17 10 -10 30 -27 44 -39 13 -11 32 -35 41 -52 l17 -32 17 0 18 0 99 -105 99 -104 29 -10 29 -10 -6 -19 -6 -18 33 -30 c19 -16 36 -35 38 -41 4 -11 63 -84 102 -124 9 -11 17 -23 17 -27 0 -5 11 -19 25 -32 14 -13 25 -29 25 -35 0 -6 11 -21 25 -33 14 -12 25 -28 25 -35 0 -7 10 -23 23 -35 45 -43 57 -59 57 -75 0 -9 4 -18 9 -21 5 -3 23 -35 40 -71 17 -36 36 -65 41 -65 5 0 17 -15 26 -32 9 -18 25 -42 35 -54 10 -11 21 -33 22 -50 2 -16 18 -57 35 -91 l32 -62 21 -6 21 -7 -5 -18 c-7 -26 17 -110 47 -166 14 -27 26 -57 26 -67 0 -10 10 -37 22 -60 11 -23 25 -55 29 -72 9 -38 29 -95 41 -118 5 -10 6 -22 3 -27 -3 -5 1 -23 10 -39 8 -17 15 -43 15 -58 0 -29 18 -87 35 -113 5 -8 10 -37 12 -64 2 -27 8 -55 14 -62 l11 -14 -5 -30 -6 -29 9 -6 c6 -3 10 -19 10 -35 0 -16 4 -32 10 -35 5 -3 10 -16 10 -28 -1 -12 4 -49 10 -82 7 -33 13 -78 14 -100 1 -22 5 -47 8 -55 15 -37 22 -178 21 -480 l0 -325 -12 -110 c-6 -60 -13 -135 -15 -165 -6 -93 -18 -174 -28 -187 l-10 -13 6 -26 7 -26 -11 -12 c-13 -17 -30 -104 -35 -194 l-5 -74 -24 -41 c-13 -23 -29 -70 -36 -105 -7 -34 -17 -65 -21 -68 -5 -3 -9 -17 -9 -32 0 -15 -7 -36 -15 -46 -8 -11 -15 -31 -15 -45 0 -14 -7 -35 -15 -45 -8 -11 -15 -31 -15 -45 0 -14 -7 -35 -15 -45 -8 -11 -15 -28 -15 -39 0 -19 -83 -194 -101 -211 -5 -6 -9 -20 -9 -32 0 -29 -96 -234 -110 -234 -5 0 -24 -30 -42 -67 -17 -38 -37 -72 -44 -76 -7 -4 -25 -31 -39 -59 -14 -28 -37 -64 -50 -80 -14 -16 -25 -35 -25 -42 0 -7 -11 -26 -25 -42 -14 -16 -33 -38 -43 -49 -9 -11 -26 -37 -36 -57 -11 -21 -23 -38 -28 -38 -5 0 -17 -17 -26 -38 -10 -21 -36 -61 -60 -89 -23 -28 -50 -70 -61 -93 -20 -45 -56 -97 -108 -157 l-31 -36 11 -17 10 -18 -21 -26 -21 -27 6 -15 c3 -8 0 -20 -6 -28 -6 -7 -14 -34 -17 -60 l-7 -46 18 -20 17 -19 2 -47 1 -46 -14 -6 -13 -5 -10 16 c-5 10 -19 17 -31 17 l-22 1 -45 50 c-25 27 -60 65 -77 83 -18 18 -33 36 -33 40 0 18 -65 85 -87 91 l-24 6 -14 33 c-8 19 -28 45 -45 59 -16 14 -30 30 -30 35 0 5 -16 22 -35 37 -18 15 -38 40 -44 56 -5 15 -28 46 -50 68 -23 23 -41 47 -41 54 0 7 -10 23 -22 35 -13 11 -32 32 -43 46 -11 15 -36 37 -57 51 l-36 24 -7 30 c-3 17 -20 45 -36 62 -16 17 -29 34 -29 38 0 4 -18 26 -40 49 -22 22 -40 46 -40 51 0 6 -9 15 -20 21 -11 6 -20 16 -20 23 0 7 -14 20 -30 29 l-30 17 0 26 c0 32 -36 104 -55 112 -29 11 14 141 56 171 10 7 19 20 19 28 0 9 18 33 40 54 22 21 40 45 40 54 0 9 20 34 45 57 25 23 45 47 45 54 0 6 10 20 21 31 12 10 33 43 46 72 l23 53 18 -3 17 -3 -3 43 -4 44 21 -7 20 -6 55 110 c31 61 53 117 50 125 l-5 14 19 13 c21 15 52 70 52 92 0 21 41 101 56 110 8 4 14 20 14 35 0 15 7 36 15 46 8 11 15 30 15 42 0 12 6 35 14 51 21 41 33 90 41 158 4 33 11 65 15 70 5 6 9 20 9 30 -1 45 14 141 24 153 l10 13 1 277 c1 316 -4 481 -16 488 -4 3 -8 22 -8 42 0 20 -7 46 -15 56 -8 11 -15 32 -15 47 0 15 -5 31 -10 34 -6 4 -8 15 -5 25 3 10 2 21 -3 24 -6 3 -13 30 -17 61 -3 30 -11 57 -16 60 -5 4 -9 19 -9 34 0 15 -7 36 -15 47 -8 10 -15 30 -15 43 0 20 -10 43 -61 143 -5 10 -9 25 -9 33 0 22 -118 255 -147 289 -14 17 -36 54 -49 84 -13 30 -41 74 -62 98 -20 23 -46 55 -57 69 -11 15 -32 42 -47 60 -16 18 -28 36 -28 40 0 5 -16 23 -36 41 l-37 32 5 27 6 26 -22 9 c-11 4 -30 17 -40 29 -11 11 -23 21 -27 21 -14 0 -70 63 -80 88 l-9 22 -29 6 -29 6 -78 74 c-44 41 -88 83 -99 94 -12 11 -25 20 -31 20 -6 0 -28 16 -50 35 -21 19 -47 35 -57 35 -10 0 -20 6 -23 14 -3 8 -30 26 -60 40 -30 14 -54 30 -54 35 0 6 -64 42 -142 81 l-143 70 -53 10 c-29 5 -61 14 -72 20 -10 5 -28 10 -40 10 -11 0 -23 7 -26 15 -8 19 -61 46 -79 39 -7 -3 -16 -1 -20 5 -3 6 -16 11 -28 11 -12 0 -35 7 -52 16 l-30 16 -38 -6 -37 -6 -42 20 -42 20 -61 0 -61 0 -20 14 -20 14 -74 6 c-96 8 -287 7 -323 -1 l-28 -6 -24 13 -23 13 -34 -8 c-18 -4 -63 -9 -100 -12 l-67 -5 -12 -14 c-14 -17 -55 -19 -65 -3 l-6 11 -11 -11 c-6 -6 -30 -11 -53 -11 -24 0 -46 -5 -49 -10 -4 -6 -15 -8 -25 -5 -10 3 -21 1 -25 -5 -3 -5 -19 -10 -35 -10 -16 0 -32 -5 -35 -11 -4 -6 -13 -8 -20 -5 -15 5 -65 -9 -107 -30 -14 -8 -37 -14 -50 -14 -12 0 -43 -11 -66 -25 -24 -14 -48 -23 -52 -20 -10 6 -442 -211 -455 -229 -6 -7 -33 -24 -60 -36 -28 -12 -60 -32 -72 -44 -46 -44 -59 -54 -80 -60 l-23 -7 0 -20 0 -19 -25 -10 -25 -10 0 -20 0 -21 -17 -6 c-10 -3 -26 -15 -37 -26 l-19 -19 -23 5 -23 4 -85 -86 -84 -86 5 -28 5 -27 -12 0 c-7 0 -19 8 -26 18 l-14 17 -10 -15 c-5 -8 -10 -23 -10 -32 0 -9 -14 -31 -31 -50 -61 -65 -67 -73 -73 -95 -4 -12 -16 -25 -27 -28 -25 -8 -59 -62 -59 -92 l0 -23 -26 -17 -26 -17 -49 -103 c-27 -57 -54 -103 -59 -103 -14 0 -71 -117 -64 -133 3 -8 -2 -20 -11 -27 -8 -7 -15 -18 -15 -25 0 -7 -11 -32 -25 -56 -13 -24 -27 -67 -31 -96 l-6 -54 -20 -10 -19 -10 6 -19 c3 -10 1 -21 -5 -25 -5 -3 -10 -17 -10 -30 0 -13 -6 -36 -14 -52 -21 -41 -33 -90 -41 -157 -4 -33 -11 -66 -15 -75 -9 -17 -32 -179 -34 -241 -1 -19 -5 -41 -9 -48 -5 -7 -6 -19 -3 -27 3 -8 6 -124 7 -257 1 -134 5 -247 9 -253 7 -9 21 -106 21 -145 0 -8 4 -24 9 -35 4 -11 16 -56 25 -100 10 -44 23 -85 28 -92 5 -7 6 -16 3 -21 -6 -10 8 -58 36 -118 l18 -42 1 -52 2 -51 23 -16 c13 -8 24 -21 24 -28 0 -7 7 -26 15 -41 8 -16 15 -37 15 -46 0 -10 28 -74 62 -142 l62 -125 22 -5 22 -6 12 -36 c7 -19 18 -38 26 -41 14 -5 54 -81 54 -101 0 -5 18 -28 39 -50 22 -23 50 -60 63 -84 31 -58 63 -98 79 -98 12 0 35 -18 67 -55 53 -59 130 -135 140 -135 5 0 43 -36 84 -80 40 -44 78 -80 85 -80 7 0 21 -10 32 -21 21 -23 54 -44 84 -55 9 -3 17 -10 17 -15 0 -4 15 -15 34 -24 19 -9 42 -25 52 -36 9 -10 23 -19 30 -19 7 0 21 -11 32 -25 l20 -25 31 0 30 0 11 -20 10 -20 54 -15 c30 -9 71 -29 92 -45 20 -17 46 -30 58 -30 11 0 46 -13 76 -30 30 -16 67 -29 82 -30 l27 0 10 -19 10 -18 53 -8 c29 -5 60 -10 68 -11 77 -15 103 -24 118 -38 l18 -16 10 10 9 9 106 -18 c57 -10 114 -23 126 -30 12 -6 37 -11 56 -11 l35 0 6 -15 6 -16 62 2 c35 1 68 5 73 8 12 6 190 14 351 15 l112 1 19 -18 c11 -9 27 -17 36 -17 9 0 17 -5 17 -10 0 -6 20 -19 45 -30 25 -11 45 -25 45 -32 0 -6 36 -46 80 -88 44 -42 80 -81 80 -87 0 -5 9 -18 20 -28 11 -10 20 -26 20 -35 0 -9 16 -33 35 -53 19 -20 35 -41 35 -46 0 -6 9 -15 20 -21 11 -6 20 -17 20 -24 0 -7 11 -23 25 -36 14 -13 25 -29 25 -37 0 -7 9 -18 20 -25 11 -7 20 -18 20 -23 0 -6 17 -29 39 -51 21 -23 41 -49 45 -60 3 -10 24 -39 46 -63 22 -24 40 -46 40 -48 0 -3 11 -14 25 -25 14 -11 25 -25 25 -31 0 -7 18 -31 40 -55 22 -24 40 -49 40 -56 0 -7 9 -21 19 -30 11 -10 29 -37 40 -61 24 -51 37 -61 56 -45 8 6 19 9 25 5 l10 -6 -6 -23 -5 -22 15 -13 c9 -8 16 -19 16 -26 0 -7 13 -23 30 -37 16 -13 43 -52 60 -87 17 -34 37 -64 45 -67 7 -3 19 -19 25 -35 l12 -29 -4 -54 -5 -54 -30 -36 c-17 -19 -34 -45 -38 -58 -4 -13 -60 -76 -126 -140 -65 -64 -119 -122 -119 -128 0 -7 -38 -49 -84 -93 -46 -45 -89 -92 -95 -104 -7 -13 -18 -23 -26 -23 -8 0 -19 -9 -24 -19 -15 -27 -83 -96 -103 -104 -9 -3 -29 -24 -43 -46 -13 -22 -38 -47 -53 -55 -16 -8 -37 -27 -47 -43 -24 -37 -100 -113 -113 -113 -5 0 -15 -14 -21 -31 l-11 -31 -90 -89 c-49 -49 -96 -89 -104 -89 -9 0 -23 -11 -32 -25 l-16 -25 6 -25 6 -24 -14 5 -14 5 -143 -146 c-79 -80 -157 -153 -172 -161 -15 -8 -32 -26 -37 -39 -5 -14 -15 -25 -22 -25 -16 0 -68 -51 -68 -67 l0 -13 -26 0 -25 0 6 -19 6 -19 -33 -7 c-43 -10 -155 -11 -190 -2 l-28 7 0 20 0 20 -16 0 c-20 0 -194 174 -194 195 0 8 -4 15 -10 15 -5 0 -10 -6 -10 -14 0 -7 -6 -19 -14 -25 l-14 -12 -6 17 c-3 8 -6 28 -6 42 l-1 27 -29 25 c-17 13 -30 29 -30 35 0 5 -25 36 -55 68 l-56 57 -19 0 -20 0 0 20 0 20 -14 0 -14 0 -11 33 c-7 19 -27 48 -46 65 -19 16 -35 35 -35 40 0 6 -16 20 -35 32 l-36 22 -14 -12 c-14 -12 -35 -6 -35 10 0 5 9 12 21 15 l20 7 -12 14 c-6 8 -18 14 -26 14 -7 0 -17 8 -20 18 -4 9 -35 44 -69 77 -34 33 -63 65 -65 72 -6 18 -149 173 -291 315 -71 70 -128 131 -128 136 0 5 -65 75 -145 157 -80 81 -145 151 -145 155 0 4 -16 20 -35 36 -19 15 -35 33 -35 39 0 15 -83 95 -98 95 -19 0 -92 70 -92 89 0 9 -21 36 -46 60 -25 25 -57 62 -70 83 -14 22 -31 41 -39 45 -8 3 -15 12 -15 19 0 8 -11 20 -25 26 -14 6 -25 15 -25 19 0 17 -53 69 -71 69 -10 0 -19 5 -19 11 0 6 -29 39 -65 73 -36 34 -65 67 -65 72 0 5 -31 41 -70 79 -38 38 -70 73 -70 78 0 4 -29 37 -65 72 -36 35 -65 67 -65 71 0 13 -63 74 -76 74 -18 0 -68 60 -92 111 -12 25 -37 62 -56 82 -19 21 -37 44 -40 53 -3 9 -15 18 -26 21 l-19 5 -35 72 -34 72 -26 17 c-14 10 -35 39 -47 65 -12 26 -32 59 -45 75 -29 35 -154 287 -154 313 -1 10 -14 44 -30 74 -17 30 -30 63 -30 73 0 10 -8 34 -18 55 -11 20 -24 60 -31 87 -7 28 -18 61 -23 75 -6 14 -15 45 -19 70 -12 70 -29 143 -39 165 -10 22 -27 126 -40 251 -4 45 -14 92 -20 104 l-12 23 1 134 1 134 10 20 c6 10 10 38 10 62 -1 23 -1 852 -1 1841 0 989 -2 1803 -5 1808 -7 11 -7 245 0 256 3 5 6 206 7 446 l1 438 14 26 13 26 -10 12 c-21 26 59 134 99 134 10 0 23 5 30 12 6 6 26 13 43 15 18 2 38 8 45 14 l13 11 56 -7 55 -7 14 11 14 12 209 -6 c176 -5 2074 -9 2186 -4 55 2 166 2 532 0 182 0 400 3 485 7 85 5 208 10 272 10 l116 2 4 -11z m2696 -7301 l10 -13 -9 -22 -8 -23 -26 0 -25 0 -1 13 c-5 48 33 76 59 45z m31 -128 c19 -17 34 -41 35 -53 l1 -22 25 -3 c31 -5 65 -40 65 -67 l0 -20 25 2 c14 1 35 0 48 -3 l22 -4 0 -28 0 -27 35 -29 c19 -16 35 -34 35 -40 0 -6 21 -30 47 -54 l48 -43 33 6 32 6 0 -11 c0 -5 -7 -10 -15 -10 l-15 0 0 -18 c0 -32 29 -78 74 -120 24 -22 45 -45 47 -50 7 -19 89 -102 101 -102 15 0 48 -30 48 -43 0 -5 20 -32 45 -58 25 -26 45 -54 45 -61 0 -7 24 -36 53 -64 28 -28 61 -63 72 -79 11 -15 34 -42 51 -59 17 -17 33 -36 35 -43 4 -13 119 -140 192 -213 26 -26 47 -51 47 -55 0 -10 79 -99 173 -194 37 -37 67 -72 67 -77 0 -5 18 -29 40 -53 22 -24 40 -46 40 -50 0 -4 29 -33 65 -66 l65 -60 -5 -16 -5 -15 50 -45 c27 -24 50 -49 50 -55 0 -15 39 -49 75 -65 l30 -14 0 -40 1 -40 27 -50 27 -50 0 -33 0 -33 -15 -5 c-8 -4 -15 -15 -15 -25 0 -19 -37 -81 -53 -87 -4 -2 -33 -25 -64 -50 -60 -49 -117 -82 -143 -82 -8 0 -28 -7 -45 -16 l-30 -15 -100 -6 -100 -5 -17 -15 -17 -15 -98 6 c-54 4 -121 6 -150 6 l-51 -1 -7 11 c-3 5 -16 10 -28 10 -12 0 -34 6 -48 14 -14 7 -38 16 -54 20 -45 11 -252 116 -271 137 -9 10 -21 19 -26 19 -10 0 -24 12 -127 110 -47 44 -90 80 -98 80 -7 0 -13 6 -13 13 0 7 -16 28 -35 47 -19 19 -35 42 -35 52 l0 19 -35 15 c-19 8 -35 19 -35 24 0 5 -29 38 -65 73 -36 35 -65 68 -65 74 0 5 -16 27 -35 49 -19 21 -35 45 -35 52 0 6 -3 12 -8 12 -13 0 -102 90 -102 103 0 7 -9 18 -20 25 l-20 12 0 26 0 25 -31 17 c-43 23 -91 70 -117 114 l-22 36 -40 -5 -40 -6 0 11 c0 6 5 14 10 17 6 3 10 17 10 31 l0 25 -15 5 c-8 3 -17 16 -21 27 -3 12 -15 29 -26 38 l-21 16 -8 53 -8 53 16 30 c18 35 249 270 276 280 9 3 28 31 42 61 13 29 31 56 40 60 8 3 15 11 15 19 0 7 14 29 30 47 17 18 30 43 30 54 0 12 11 43 25 71 l26 49 -7 42 -6 42 11 6 11 7 0 58 c0 31 -5 62 -11 68 -6 6 -11 38 -13 73 l-2 62 -18 10 -17 10 6 29 7 30 -36 36 -36 37 -14 -19 -15 -20 -12 12 -12 12 29 29 29 30 15 -8 c8 -5 30 -23 49 -40z"/><path d="M8315 11469 c-22 -5 -80 -19 -130 -30 -364 -82 -701 -353 -873 -704 -19 -38 -38 -78 -43 -87 -30 -58 -51 -132 -92 -328 -25 -120 -11 -377 29 -515 20 -73 53 -174 63 -193 4 -9 17 -35 27 -57 112 -239 292 -437 539 -593 60 -37 250 -122 275 -122 10 0 31 -7 46 -15 16 -8 43 -15 59 -15 17 0 52 -7 79 -15 l49 -15 156 0 156 0 75 16 c162 35 250 65 380 128 149 73 336 227 438 361 25 33 49 62 52 65 29 22 151 264 176 345 74 246 91 426 60 625 -24 155 -56 258 -126 405 -184 386 -532 652 -960 735 l-105 20 -145 -1 c-80 -1 -163 -5 -185 -10z m378 -293 c8 3 18 1 22 -5 3 -6 23 -11 43 -11 20 0 50 -7 66 -15 15 -8 35 -15 43 -15 8 0 53 -18 99 -41 l84 -41 0 -18 0 -18 31 -11 c18 -6 38 -11 46 -11 16 0 183 -163 183 -178 0 -5 6 -15 14 -21 l14 -12 6 16 c3 8 11 15 17 15 l11 0 -5 -21 -6 -21 73 -147 c41 -80 77 -164 80 -186 6 -35 17 -76 34 -125 19 -55 18 -307 0 -326 -5 -4 -8 -27 -8 -50 0 -24 -5 -46 -10 -49 -6 -4 -8 -15 -5 -25 l6 -19 -19 -10 c-25 -13 -31 -30 -42 -114 l-8 -69 -21 -22 c-12 -12 -21 -30 -21 -39 0 -9 -6 -17 -14 -17 -8 0 -22 -13 -31 -28 -10 -16 -27 -32 -39 -38 l-21 -9 -3 -25 c-2 -14 -10 -29 -18 -33 -8 -4 -14 -13 -14 -19 0 -24 -125 -128 -155 -128 -11 0 -26 -4 -33 -8 l-13 -9 6 -15 6 -16 -31 -11 -32 -11 -5 -20 -5 -20 -24 0 c-12 0 -26 -4 -29 -10 -3 -5 -18 -10 -33 -10 -15 0 -47 -11 -70 -25 -24 -14 -48 -22 -53 -19 -6 3 -16 1 -23 -6 l-14 -11 -26 7 -26 6 -6 -16 -6 -16 -33 6 -33 6 -6 -11 -7 -11 -119 0 -119 0 -7 11 -6 11 -30 -6 c-16 -3 -37 -2 -46 4 -19 10 -69 23 -92 25 -8 0 -34 10 -57 23 -23 12 -58 22 -78 22 -19 0 -35 4 -35 10 0 5 -15 16 -34 24 l-33 14 -7 26 -6 26 -17 0 c-8 0 -26 11 -39 25 -13 14 -32 25 -43 25 -11 0 -32 5 -46 12 l-25 11 0 18 c0 10 -9 24 -19 31 -10 8 -21 25 -23 38 l-3 25 -33 15 -32 15 -11 42 -11 41 -24 6 c-13 4 -24 13 -24 21 0 8 -13 28 -30 45 l-29 30 -7 37 c-4 21 -15 55 -25 75 -11 21 -19 46 -19 57 0 11 -4 23 -10 26 -5 3 -10 19 -10 35 0 16 -4 32 -10 35 -5 3 -10 20 -11 38 0 18 -2 87 -5 155 l-5 124 11 13 12 14 -7 30 -6 29 10 7 c6 3 11 18 11 33 0 15 7 36 15 46 8 11 15 28 15 38 0 20 127 285 146 305 7 7 10 21 7 32 l-5 20 20 -6 21 -5 65 64 c36 34 66 69 66 76 0 7 8 15 18 19 9 3 26 14 38 25 28 25 94 58 116 58 l18 0 0 15 c0 19 28 49 55 60 27 11 94 22 245 40 30 4 60 11 66 16 13 11 253 17 276 7 9 -5 23 -5 31 -2z"/></g></g></svg>